<svg width="25" height="24" viewBox="0 0 25 24" fill="none" xmlns="http://www.w3.org/2000/svg">
<g id="Google">
<path id="Vector" d="M24.2612 12.2878C24.2612 11.4774 24.1828 10.6408 24.0521 9.85651H12.732V14.4839H19.2156C18.9541 15.974 18.0914 17.2812 16.8104 18.1178L20.6796 21.1243C22.954 19.0067 24.2612 15.9218 24.2612 12.2878Z" fill="#4280EF"/>
<path id="Vector_2" d="M12.732 24C15.9738 24 18.6927 22.9282 20.6796 21.0981L16.8104 18.1178C15.7385 18.8498 14.3529 19.2681 12.732 19.2681C9.59482 19.2681 6.95435 17.1505 5.98705 14.327L2.01327 17.3858C4.05244 21.438 8.18308 24 12.732 24Z" fill="#34A353"/>
<path id="Vector_3" d="M5.98705 14.3009C5.49033 12.8107 5.49033 11.1898 5.98705 9.69965L2.01327 6.61475C0.313956 10.0134 0.313956 14.0133 2.01327 17.3858L5.98705 14.3009Z" fill="#F6B704"/>
<path id="Vector_4" d="M12.732 4.75854C14.4313 4.73239 16.1045 5.38598 17.3332 6.56242L20.758 3.11151C18.5881 1.07233 15.7124 -0.025687 12.732 0.000456276C8.18309 0.000456276 4.05244 2.5625 2.01327 6.61471L5.98705 9.69962C6.95435 6.85 9.59482 4.75854 12.732 4.75854Z" fill="#E54335"/>
</g>
</svg>
