<svg width="40" height="38" viewBox="0 0 40 38" fill="none" xmlns="http://www.w3.org/2000/svg">
<g clip-path="url(#clip0_2_112)">
<path d="M23 0.199951H4C1.79086 0.199951 0 1.99081 0 4.19995V25.2C0 27.4091 1.79086 29.2 4 29.2H23C25.2091 29.2 27 27.4091 27 25.2V4.19995C27 1.99081 25.2091 0.199951 23 0.199951Z" fill="#FFDD66"/>
<path d="M35.1949 11.4H17.9949C15.7858 11.4 13.9949 13.1909 13.9949 15.4V33.8C13.9949 36.0091 15.7858 37.8 17.9949 37.8H35.1949C37.404 37.8 39.1949 36.0091 39.1949 33.8V15.4C39.1949 13.1909 37.404 11.4 35.1949 11.4Z" fill="#FFD540"/>
<path fill-rule="evenodd" clip-rule="evenodd" d="M27.1969 11.3969V25.3963C27.1969 27.6055 25.406 29.3963 23.1969 29.3963H13.9969V15.3969C13.9969 13.1878 15.7877 11.3969 17.9969 11.3969H27.1969Z" fill="#FFEEB2"/>
</g>
<defs>
<clipPath id="clip0_2_112">
<rect width="40" height="38" fill="white"/>
</clipPath>
</defs>
</svg>
