<svg width="40" height="38" viewBox="0 0 40 38" fill="none" xmlns="http://www.w3.org/2000/svg">
<g clip-path="url(#clip0_2_113)">
<path opacity="0.5" d="M25.0333 37.9488C32.9722 37.9488 39.4079 31.5131 39.4079 23.5743C39.4079 15.6354 32.9722 9.19971 25.0333 9.19971C17.0945 9.19971 10.6588 15.6354 10.6588 23.5743C10.6588 31.5131 17.0945 37.9488 25.0333 37.9488Z" fill="#9F7FEB"/>
<path opacity="0.7" d="M12.3841 24.1491C19.0527 24.1491 24.4587 18.7432 24.4587 12.0746C24.4587 5.40597 19.0527 0 12.3841 0C5.71551 0 0.30954 5.40597 0.30954 12.0746C0.30954 18.7432 5.71551 24.1491 12.3841 24.1491Z" fill="#9F7FEB"/>
<path fill-rule="evenodd" clip-rule="evenodd" d="M12.3828 24.1487C19.0514 24.1487 24.4574 18.7427 24.4574 12.0741C24.4574 11.0937 24.3405 10.1405 24.12 9.22778C16.6068 9.69894 10.659 15.9418 10.659 23.5738C10.659 23.7256 10.6613 23.8768 10.666 24.0276C11.2268 24.1074 11.7999 24.1487 12.3828 24.1487Z" fill="#9F7FEB"/>
</g>
<defs>
<clipPath id="clip0_2_113">
<rect width="40" height="37.9487" fill="white"/>
</clipPath>
</defs>
</svg>
