<svg width="217" height="43" viewBox="0 0 217 43" fill="none" xmlns="http://www.w3.org/2000/svg">
<g clip-path="url(#clip0_2_3)">
<path d="M163.863 21.8726V35.3173H168.232V21.8726C168.232 20.2276 169.569 18.8904 171.214 18.8904H173.589V14.5215H171.214C167.161 14.5215 163.863 17.819 163.863 21.8726Z" fill="white"/>
<path d="M36.1563 26.4109C36.0234 28.9866 34.0175 31.0381 31.4418 31.0381C28.7369 31.0381 26.6854 28.9448 26.6854 26.2817V14.1933H22.3203V26.2817C22.3203 31.342 25.6786 35.445 31.4418 35.445C33.0108 35.445 35.1952 34.8333 36.1563 33.3935V35.1373H40.5214V14.1895H36.1563V26.4071V26.4109Z" fill="white"/>
<path d="M66.7622 13.7969C64.1864 13.7969 61.9602 14.8454 60.3912 16.5892C58.8184 14.8454 56.8999 13.7969 54.3242 13.7969C52.797 13.7969 50.5707 14.4959 49.8717 15.9357V14.192H45.4648V35.1398H49.8717V22.2649C49.9591 20.0387 51.7484 18.2493 54.0164 18.2493C56.2845 18.2493 58.1612 20.0843 58.1612 22.3941V35.136H62.6136V22.3941C62.6136 20.0805 64.4448 18.2493 66.7584 18.2493C69.072 18.2493 70.9031 20.0843 70.9031 22.3941V35.136H75.3099V22.3941C75.3099 17.6795 71.4691 13.7969 66.7584 13.7969" fill="white"/>
<path d="M89.2191 30.9925C85.686 30.9925 82.8026 28.1547 82.8026 24.6216C82.8026 21.0885 85.6822 18.2506 89.2191 18.2506C92.756 18.2506 95.6357 21.0885 95.6357 24.6216C95.6357 28.1547 92.756 30.9925 89.2191 30.9925ZM95.6357 16.636C94.2376 14.8885 91.5783 13.8438 89.2191 13.8438C83.2851 13.8438 78.4375 18.6875 78.4375 24.6216C78.4375 30.5556 83.2813 35.4032 89.2191 35.4032C91.5745 35.4032 94.2376 34.3547 95.6357 32.6109V35.1411H100.043V14.1515H95.6357V16.6398V16.636Z" fill="white"/>
<path d="M149.536 31.4092C145.999 31.4092 143.119 28.5713 143.119 25.0383C143.119 21.5052 145.999 18.6255 149.536 18.6255C153.072 18.6255 155.952 21.4634 155.952 25.0383C155.952 28.6131 153.072 31.4092 149.536 31.4092ZM149.536 14.2148C143.601 14.2148 138.754 19.1042 138.754 25.0383C138.754 30.9723 143.598 35.8199 149.536 35.8199C155.473 35.8199 160.359 30.9761 160.359 25.0383C160.359 19.1004 155.473 14.2148 149.536 14.2148Z" fill="white"/>
<path d="M18.2011 35.0945V21.9917C18.2011 16.8858 14.0982 12.8284 9.07966 12.8284C7.33591 12.8284 5.45919 13.4819 4.36507 14.8343V0.9375H0V35.0945H4.36507V21.8207C4.49424 19.245 6.50392 17.1935 9.07966 17.1935C11.6554 17.1935 13.836 19.2906 13.836 21.9917V35.0945C13.836 39.1481 17.1336 42.4456 21.1871 42.4456V38.0767C19.5422 38.0767 18.2049 36.7395 18.2049 35.0945" fill="white"/>
<path d="M129.027 12.4019V14.1456H125.855V18.2904H128.849V35.1352H128.837C128.837 36.7802 127.5 38.1175 125.855 38.1175C124.21 38.1175 122.873 36.7802 122.873 35.1352H122.869V23.0885C122.869 17.9826 118.766 13.9253 113.748 13.9253C112 13.9253 110.127 14.404 109.033 15.9312V14.1874H104.668V35.1352H109.033V22.9176C109.166 20.3418 111.172 18.2904 113.748 18.2904C116.323 18.2904 118.504 20.3836 118.504 23.0885V35.1352C118.504 39.1888 121.802 42.4863 125.855 42.4863C129.909 42.4863 133.206 39.1888 133.206 35.1352V18.2904H136.842V14.1456H133.396V12.4019C133.396 10.7569 134.733 9.41965 136.382 9.41965H138.757V5.05078H136.382C132.329 5.05078 129.031 8.34833 129.031 12.4019" fill="white"/>
<path d="M186.476 18.3535C188.528 18.3535 190.317 19.1816 191.495 20.4923L194.333 17.8292C192.543 15.6903 189.705 14.3379 186.393 14.3379C180.5 14.3379 175.395 18.5738 175.395 25.0321C175.395 31.4905 180.5 35.7682 186.393 35.7682C189.709 35.7682 192.543 34.4195 194.333 32.2807L191.495 29.6176C190.317 30.9282 188.528 31.7564 186.476 31.7564C182.681 31.7564 179.668 28.9185 179.668 25.0359C179.668 21.1533 182.681 18.3611 186.476 18.3611" fill="white"/>
<path d="M200.523 23.3282C201.134 19.9205 203.49 18.3059 206.632 18.3059C209.773 18.3059 212.087 20.1408 212.524 23.3282H200.523ZM216.802 24.9428C216.802 18.5263 212.395 14.3359 206.59 14.3359C200.785 14.3359 196.07 18.5263 196.07 24.9846C196.07 31.4429 200.698 35.7624 206.59 35.7624C210.476 35.7624 214.142 33.9313 215.928 30.5274L212.524 28.8254C211.392 30.6983 209.166 31.7924 206.765 31.7924C203.49 31.7924 201.047 30.0905 200.481 26.7739H216.714C216.756 26.1167 216.802 25.5089 216.802 24.939" fill="white"/>
</g>
<defs>
<clipPath id="clip0_2_3">
<rect width="217" height="43" fill="white"/>
</clipPath>
</defs>
</svg>
