<svg width="187" height="38" viewBox="0 0 187 38" fill="none" xmlns="http://www.w3.org/2000/svg">
<g clip-path="url(#clip0_1_59)">
<path d="M141.01 19.3206V30.8893H144.769V19.3206C144.769 17.9051 145.92 16.7545 147.335 16.7545H149.379V12.9952H147.335C143.848 12.9952 141.01 15.8326 141.01 19.3206Z" fill="#3C479D"/>
<path d="M31.1225 23.2257C31.0081 25.442 29.2821 27.2072 27.0658 27.2072C24.7384 27.2072 22.9731 25.406 22.9731 23.1145V12.7128H19.2171V23.1145C19.2171 27.4687 22.1068 30.9992 27.0658 30.9992C28.4159 30.9992 30.2955 30.4728 31.1225 29.2339V30.7344H34.8785V12.7096H31.1225V23.2224V23.2257Z" fill="#3C479D"/>
<path d="M57.4578 12.3717C55.2414 12.3717 53.3259 13.2739 51.9758 14.7744C50.6225 13.2739 48.9717 12.3717 46.7554 12.3717C45.4412 12.3717 43.5256 12.9732 42.9241 14.2121V12.7117H39.1321V30.7366H42.9241V19.6582C42.9993 17.7426 44.539 16.2029 46.4905 16.2029C48.4421 16.2029 50.057 17.7818 50.057 19.7693V30.7333H53.8881V19.7693C53.8881 17.7786 55.4638 16.2029 57.4545 16.2029C59.4453 16.2029 61.0209 17.7818 61.0209 19.7693V30.7333H64.8128V19.7693C64.8128 15.7126 61.5079 12.3717 57.4545 12.3717" fill="#3C479D"/>
<path d="M76.7812 27.168C73.7411 27.168 71.26 24.7261 71.26 21.686C71.26 18.6459 73.7378 16.204 76.7812 16.204C79.8246 16.204 82.3024 18.6459 82.3024 21.686C82.3024 24.7261 79.8246 27.168 76.7812 27.168ZM82.3024 14.8147C81.0994 13.311 78.8112 12.4121 76.7812 12.4121C71.6752 12.4121 67.504 16.5799 67.504 21.686C67.504 26.792 71.6719 30.9632 76.7812 30.9632C78.8079 30.9632 81.0994 30.061 82.3024 28.5605V30.7377H86.0948V12.6769H82.3024V14.818V14.8147Z" fill="#3C479D"/>
<path d="M128.682 27.5265C125.638 27.5265 123.16 25.0846 123.16 22.0446C123.16 19.0045 125.638 16.5266 128.682 16.5266C131.724 16.5266 134.203 18.9685 134.203 22.0446C134.203 25.1206 131.724 27.5265 128.682 27.5265ZM128.682 12.7313C123.575 12.7313 119.404 16.9385 119.404 22.0446C119.404 27.1506 123.572 31.3218 128.682 31.3218C133.79 31.3218 137.995 27.1539 137.995 22.0446C137.995 16.9352 133.79 12.7313 128.682 12.7313Z" fill="#3C479D"/>
<path d="M15.6727 30.6976V19.4231C15.6727 15.0296 12.1423 11.5384 7.82399 11.5384C6.32356 11.5384 4.7087 12.1007 3.76725 13.2644V1.30669H0.011261V30.6976H3.76725V19.2759C3.8784 17.0596 5.60766 15.2944 7.82399 15.2944C10.0403 15.2944 11.9167 17.0989 11.9167 19.4231V30.6976C11.9167 34.1856 14.7541 37.023 18.242 37.023V33.2637C16.8266 33.2637 15.6759 32.1131 15.6759 30.6976" fill="#3C479D"/>
<path d="M111.035 11.1714V12.6718H108.305V16.2383H110.881V30.7326H110.871C110.871 32.1481 109.721 33.2988 108.305 33.2988C106.89 33.2988 105.739 32.1481 105.739 30.7326H105.736V20.3669C105.736 15.9734 102.205 12.4822 97.8875 12.4822C96.3834 12.4822 94.7717 12.8941 93.8304 14.2082V12.7078H90.0744V30.7326H93.8304V20.2198C93.9448 18.0034 95.6709 16.2383 97.8875 16.2383C100.103 16.2383 101.98 18.0394 101.98 20.3669V30.7326C101.98 34.2206 104.818 37.058 108.305 37.058C111.793 37.058 114.63 34.2206 114.63 30.7326V16.2383H117.759V12.6718H114.794V11.1714C114.794 9.75594 115.944 8.60528 117.363 8.60528H119.407V4.84602H117.363C113.876 4.84602 111.038 7.68345 111.038 11.1714" fill="#3C479D"/>
<path d="M160.467 16.2925C162.233 16.2925 163.772 17.0051 164.786 18.1329L167.228 15.8414C165.688 14.001 163.246 12.8373 160.396 12.8373C155.325 12.8373 150.933 16.4821 150.933 22.0393C150.933 27.5965 155.325 31.2773 160.396 31.2773C163.249 31.2773 165.688 30.1168 167.228 28.2764L164.786 25.9849C163.772 27.1126 162.233 27.8253 160.467 27.8253C157.202 27.8253 154.609 25.3834 154.609 22.0425C154.609 18.7017 157.202 16.2991 160.467 16.2991" fill="#3C479D"/>
<path d="M172.554 20.5731C173.08 17.6409 175.107 16.2516 177.811 16.2516C180.514 16.2516 182.505 17.8305 182.881 20.5731H172.554ZM186.562 21.9624C186.562 16.4412 182.77 12.8355 177.775 12.8355C172.78 12.8355 168.723 16.4412 168.723 21.9984C168.723 27.5555 172.705 31.2723 177.775 31.2723C181.119 31.2723 184.273 29.6967 185.81 26.7678L182.881 25.3032C181.907 26.9148 179.991 27.8562 177.925 27.8562C175.107 27.8562 173.005 26.3918 172.518 23.538H186.486C186.522 22.9725 186.562 22.4495 186.562 21.9591" fill="#3C479D"/>
</g>
<defs>
<clipPath id="clip0_1_59">
<rect width="186.721" height="37" fill="white" transform="translate(0.011261 0.5)"/>
</clipPath>
</defs>
</svg>
