<svg width="124" height="9" viewBox="0 0 124 9" fill="none" xmlns="http://www.w3.org/2000/svg">
<g clip-path="url(#clip0_2_28)">
<path d="M0.964233 7.38581C5.27003 5.6208 5.15057 0.987582 11.6154 0.987582C18.0803 0.987582 18.4123 8.04772 25.4393 8.04772C32.4663 8.04772 32.345 0.987582 38.8099 0.987582C46.7416 0.987582 45.6085 8.04772 53.087 8.04772C59.8329 8.04772 60.2192 0.987582 66.6843 0.987582C73.4829 0.987582 74.3894 8.26834 80.9614 8.04772C87.5334 7.8271 87.7582 0.987582 94.7852 0.987582C101.131 0.987582 101.584 8.04772 108.836 8.04772C114.457 8.04772 116.541 0.325984 122.433 0.987582" stroke="#FFD63F" stroke-width="3" stroke-linecap="round" stroke-linejoin="round"/>
</g>
<defs>
<clipPath id="clip0_2_28">
<rect width="123.375" height="9" fill="white" transform="translate(0.011261)"/>
</clipPath>
</defs>
</svg>
